<svg xmlns="http://www.w3.org/2000/svg" xmlns:xlink="http://www.w3.org/1999/xlink" version="1.1" viewBox="202.13 202.13 2865.24 758">
			
			<g transform="scale(6.7377877596855695) translate(10, 10)">
				<defs id="SvgjsDefs3880"/><g id="SvgjsG3881" featureKey="symbolContainer" transform="matrix(2.0004145824492707,0,0,2.0004145824492707,20.00001471914682,20.008348821543795)" fill="#ffffff"><path xmlns="http://www.w3.org/2000/svg" d="M23.11 55.78L1.69 43.41A3.39 3.39 0 0 1 0 40.48V15.75a3.39 3.39 0 0 1 1.69-2.94L23.11.45a3.39 3.39 0 0 1 3.39 0l21.41 12.37a3.39 3.39 0 0 1 1.69 2.94v24.72a3.39 3.39 0 0 1-1.69 2.94L26.5 55.78a3.39 3.39 0 0 1-3.39 0z"/></g><g id="SvgjsG3882" featureKey="monogramFeature-0" transform="matrix(1.6591345601267382,0,0,1.6591345601267382,45.45403348749143,12.572814713217085)" fill="#b91d3f"><path d="M8.8932 46.475 c-0.34383 0 -0.6864 -0.10383 -1.0517 -0.315 l-5.2511 -3.0354 c-0.7302 -0.4224 -1.0518 -0.9798 -1.0518 -1.8234 l0 -19.54 c0 -0.8436 0.32162 -1.401 1.0518 -1.8234 l5.5158 -3.1884 c0.23039 -0.13858 0.49981 -0.21838 0.7878 -0.21838 c0.8448 0 1.53 0.6852 1.53 1.53 c0 0.57598 -0.31858 1.0776 -0.78894 1.3386 l-5.037 2.9112 l0 18.439 l4.296 2.4828 l10.864 -6.2796 c0.23039 -0.13858 0.49981 -0.21838 0.7878 -0.21838 c0.8448 0 1.53 0.6852 1.53 1.53 c0 0.57598 -0.31858 1.0776 -0.78894 1.3386 l-11.34 6.555 c-0.36539 0.21117 -0.7092 0.31676 -1.0531 0.31676 z M8.8944 59.947148 l0.0032227 0.00058594 c-0.34383 0 -0.68766 -0.10559 -1.0531 -0.31676 l-5.2511 -3.0354 c-0.7302 -0.4224 -1.0506 -0.9798 -1.0517 -1.8234 l-0.0072072 -6.4086 c0 -0.8256 0.6858 -1.5222 1.5288 -1.5222 c0.25981 0 0.5226 0.065976 0.76374 0.20519 l5.0676 2.9238 l5.0382 -2.9124 c0.23039 -0.13858 0.49981 -0.21838 0.7878 -0.21838 c0.8448 0 1.53 0.6852 1.53 1.53 c0 0.57598 -0.31858 1.0776 -0.78894 1.3386 l-5.514 3.1872 c-0.36539 0.21117 -0.7092 0.31676 -1.0531 0.31676 s-0.68766 -0.10559 -1.0531 -0.31676 l-3.243 -1.8744 l0 3.2004 l4.296 2.4834 l10.121 -5.8506 l0 -5.8524 c0 -0.8448 0.6852 -1.53 1.53 -1.53 s1.53 0.6852 1.53 1.53 l0 6.4026 c0 0.8436 -0.32162 1.401 -1.0518 1.8174 l-11.077 6.4086 c-0.36539 0.21117 -0.7092 0.31676 -1.0531 0.31676 z M20.549 60.0023438 c-0.8448 0 -1.5325 -0.68694 -1.5325 -1.5317 c0 -0.57598 0.31858 -1.0776 0.78894 -1.3386 l5.037 -2.9112 l0 -18.439 l-4.296 -2.4828 l-5.0382 2.9118 c-0.22981 0.13858 -0.49922 0.21838 -0.7872 0.21838 c-0.8448 0 -1.53 -0.6852 -1.53 -1.53 c0 -0.57598 0.31858 -1.0776 0.78894 -1.3386 l5.514 -3.1872 c0.36539 -0.21117 0.7092 -0.31676 1.0531 -0.31676 s0.68766 0.10559 1.0531 0.31676 l5.2511 3.0354 c0.7308 0.4224 1.0524 0.9798 1.0524 1.8234 l0 19.54 c0 0.8436 -0.32162 1.401 -1.0518 1.8234 l-5.5158 3.1884 c-0.22981 0.13858 -0.49922 0.21838 -0.7872 0.21838 z M8.895 39.796 c-0.8448 0 -1.532 -0.68586 -1.532 -1.5307 l0 -6.4026 c0 -0.8436 0.32162 -1.401 1.0518 -1.8234 l11.077 -6.4026 c0.36539 -0.21117 0.7092 -0.31676 1.0531 -0.31676 s0.68766 0.10559 1.0531 0.31676 l3.243 1.8744 l0 -3.2004 l-4.296 -2.4834 l-10.864 6.2796 c-0.23039 0.13858 -0.49981 0.21838 -0.7878 0.21838 c-0.8448 0 -1.53 -0.6852 -1.53 -1.53 c0 -0.57598 0.31858 -1.0776 0.78894 -1.3386 l11.34 -6.555 c0.36539 -0.21117 0.7092 -0.31676 1.0531 -0.31676 s0.68766 0.10559 1.0531 0.31676 l5.2511 3.0354 c0.7308 0.4224 1.0524 0.9798 1.0524 1.8234 l0 6.9372 c0 0.8532 -0.37981 1.3289 -0.9696 1.3289 c-0.25318 0 -0.54539 -0.0876 -0.8628 -0.27117 l-5.523 -3.1926 l-10.121 5.8506 l0 5.8524 c0 0.8448 -0.6852 1.53 -1.53 1.53 z"/></g><g id="SvgjsG3883" featureKey="nameFeature-0" transform="matrix(1.0166312904263708,0,0,1.0166312904263708,137.78004264539538,42.27360277448067)" fill="#ffffff"><path d="M1.2 30.240000000000002 l4.04 0 c0.08 5.16 0.48 6.16 1.92 6.16 c1.96 0 1.96 -1.64 1.96 -6 c0 -6.4 -7.92 -4.68 -7.92 -13.2 c0 -5 0 -9.6 6 -9.6 c4.44 0 5.64 2.52 5.92 8.56 l-4 0 c-0.16 -4.36 -0.64 -5.36 -1.92 -5.36 c-1.96 0 -1.96 2.16 -1.96 6.4 c0 6.2 7.96 4 7.96 13.2 c0 5.6 0 10 -6.04 10 c-4.64 0 -5.72 -2.76 -5.96 -10.16 z M18 23.16 c0 -11.16 0 -15.56 5.6 -15.56 c4.12 0 5.24 2.52 5.52 8.56 l-3.72 0 c-0.16 -4.36 -0.6 -5.36 -1.8 -5.36 c-1.84 0 -1.84 1.96 -1.84 12.36 c0 11.56 0 13.24 1.84 13.24 c1.32 0 1.72 -1 1.8 -6.16 l3.76 0 c-0.24 7.4 -1.24 10.16 -5.56 10.16 c-5.6 0 -5.6 -4.44 -5.6 -17.24 z M33.96 40 l0 -16.8 c0 -11.16 0 -15.56 6 -15.56 s6 4.4 6 15.56 l0 16.8 l-4 0 l0 -9.2 l-4 0 l0 9.2 l-4 0 z M37.96 27.6 l4 0 l0 -4.4 c0 -10.4 0 -12.36 -2 -12.36 s-2 1.96 -2 12.36 l0 4.4 z M51.96 40 l0 -32 l6.48 0 c4.12 0 5.52 2.52 5.52 7.36 c0 4.36 -0.52 6.84 -1.76 8.04 l0 0.24 c1.04 0.36 1.36 2.24 1.76 6.92 l0.8 9.44 l-4 0 l-0.52 -9.44 c-0.28 -4.76 -1 -5.76 -2.2 -5.76 l-2.08 0 l0 15.2 l-4 0 z M55.96 21.6 l2.48 0 c1.4 0 1.8 -1.4 1.8 -6.24 c0 -3.16 -0.6 -4.16 -1.8 -4.16 l-2.48 0 l0 10.4 z M69.96000000000001 40 l0 -32 l4 0 l0 28 l5.2 0 l0 4 l-9.2 0 z M83.56 40 l0 -32 l9.2 0 l0 3.2 l-5.2 0 l0 10.4 l4.4 0 l0 3.2 l-4.4 0 l0 11.2 l5.2 0 l0 4 l-9.2 0 z M95.96000000000001 11.600000000000001 l0 -3.6 l12 0 l0 3.6 l-4 0 l0 28.4 l-4 0 l0 -28.4 l-4 0 z M110.76 11.600000000000001 l0 -3.6 l12 0 l0 3.6 l-4 0 l0 28.4 l-4 0 l0 -28.4 l-4 0 z M137.96 40 l0 -32 l4 0 l0 13.6 l4 0 l0 -13.6 l4 0 l0 32 l-4 0 l0 -15.2 l-4 0 l0 15.2 l-4 0 z M155.76000000000002 23.16 l0 -15.16 l4 0 l0 15.16 c0 11.56 0 13.24 2 13.24 s2 -1.68 2 -13.24 l0 -15.16 l4 0 l0 15.16 c0 12.8 0 17.24 -6 17.24 s-6 -4.44 -6 -17.24 z M173.56 40 l0 -32 l9.2 0 l0 3.2 l-5.2 0 l0 10.4 l4.4 0 l0 3.2 l-4.4 0 l0 11.2 l5.2 0 l0 4 l-9.2 0 z M186.76 30.240000000000002 l4.04 0 c0.08 5.16 0.48 6.16 1.92 6.16 c1.96 0 1.96 -1.64 1.96 -6 c0 -6.4 -7.92 -4.68 -7.92 -13.2 c0 -5 0 -9.6 6 -9.6 c4.44 0 5.64 2.52 5.92 8.56 l-4 0 c-0.16 -4.36 -0.64 -5.36 -1.92 -5.36 c-1.96 0 -1.96 2.16 -1.96 6.4 c0 6.2 7.96 4 7.96 13.2 c0 5.6 0 10 -6.04 10 c-4.64 0 -5.72 -2.76 -5.96 -10.16 z M214.36 23.16 c0 -11.16 0.24 -15.56 6.24 -15.56 s6.24 4.4 6.24 15.56 c0 12.8 -0.24 17.24 -6.24 17.24 s-6.24 -4.44 -6.24 -17.24 z M218.36 23.16 c0 11.56 0 13.24 2.24 13.24 s2.24 -1.68 2.24 -13.24 c0 -10.4 0 -12.36 -2.24 -12.36 s-2.24 1.96 -2.24 12.36 z M232.44000000000003 40 l0 -32 l8.4 0 l0 3.2 l-4.4 0 l0 12 l3.6 0 l0 3.2 l-3.6 0 l0 13.6 l-4 0 z M256.44000000000005 40 l0 -32 l4 0 l0 28 l5.2 0 l0 4 l-9.2 0 z M270.04 40 l0 -32 l4 0 l0 32 l-4 0 z M280.04 40 l0 -32 l8.4 0 l0 3.2 l-4.4 0 l0 12 l3.6 0 l0 3.2 l-3.6 0 l0 13.6 l-4 0 z M293.24 40 l0 -32 l9.2 0 l0 3.2 l-5.2 0 l0 10.4 l4.4 0 l0 3.2 l-4.4 0 l0 11.2 l5.2 0 l0 4 l-9.2 0 z"/></g><g id="SvgjsG3884" featureKey="sloganFeature-0" transform="matrix(0.5223429908472081,0,0,0.5223429908472081,139.0417673490761,90.46142420300689)" fill="#ffffff"><path d="M7.48 12.18 c0 0.49334 0.0033984 1.03 0.010059 1.61 s-0.01668 1.16 -0.07002 1.74 s-0.15 1.14 -0.29 1.68 s-0.35666 1.0167 -0.65 1.43 s-0.67668 0.74334 -1.15 0.99 s-1.0633 0.37 -1.77 0.37 l-3.64 0 l0 -15 l3.5 0 c0.73334 0 1.34 0.10334 1.82 0.31 s0.87334 0.48666 1.18 0.84 s0.53332 0.76668 0.67998 1.24 s0.24666 0.97668 0.3 1.51 s0.08 1.08 0.08 1.64 l0 1.64 z M6.12 12.32 l0.000019531 -0.85996 c0 -0.37334 -0.01 -0.76 -0.03 -1.16 s-0.04666 -0.78 -0.08 -1.14 s-0.07668 -0.62666 -0.13002 -0.8 c-0.22666 -0.66666 -0.54 -1.16 -0.94 -1.48 s-0.96 -0.48 -1.68 -0.48 l-2 0 l0 12.16 l2.26 0 c0.29334 0 0.56 -0.05334 0.8 -0.16 s0.46 -0.25 0.66 -0.43 s0.37 -0.38666 0.51 -0.62 s0.25666 -0.47668 0.35 -0.73002 c0.06666 -0.17334 0.11666 -0.45668 0.15 -0.85002 s0.06 -0.81 0.08 -1.25 s0.03334 -0.86334 0.04 -1.27 s0.01 -0.71666 0.01 -0.93 z M13.800500000000001 20 l-1.5 0 l0 -15 l1.5 0 l0 15 z M26.381 16.12 c0 1.2267 -0.3199 2.21 -0.9599 2.95 s-1.5933 1.11 -2.86 1.11 c-0.74666 0 -1.3767 -0.10666 -1.89 -0.32 s-0.93 -0.52 -1.25 -0.92 s-0.55 -0.88 -0.69 -1.44 s-0.20334 -1.1867 -0.19 -1.88 l0.02 -0.52 l1.54 0 c0 0.42666 0.01334 0.86332 0.04 1.31 s0.11332 0.85332 0.25998 1.22 s0.37332 0.66666 0.67998 0.9 s0.74666 0.35 1.32 0.35 c0.88 0 1.5267 -0.23334 1.94 -0.7 s0.62 -1.12 0.62 -1.96 c0 -0.66666 -0.16 -1.1933 -0.48 -1.58 s-0.72 -0.71332 -1.2 -0.97998 s-0.99666 -0.50666 -1.55 -0.72 s-1.07 -0.48 -1.55 -0.8 s-0.88 -0.73 -1.2 -1.23 s-0.48 -1.1633 -0.48 -1.99 c0 -1.3333 0.34334 -2.3434 1.03 -3.03 s1.6967 -1.03 3.03 -1.03 c0.62666 0 1.17 0.1 1.63 0.3 s0.84334 0.48 1.15 0.84 s0.53332 0.78666 0.67998 1.28 s0.22 1.04 0.22 1.64 l0 1.26 l-1.46 0 c0 -0.44 -0.0033398 -0.89666 -0.01 -1.37 s-0.07666 -0.90668 -0.21 -1.3 s-0.35668 -0.71668 -0.67002 -0.97002 s-0.77 -0.38 -1.37 -0.38 c-0.86666 0 -1.52 0.22 -1.96 0.66 s-0.64666 1.0867 -0.62 1.94 l0 0.2 c0.01334 0.41334 0.08334 0.75668 0.21 1.03 s0.3 0.50668 0.52 0.70002 s0.47666 0.36334 0.77 0.51 s0.61334 0.3 0.96 0.46 c0.50666 0.22666 1 0.46666 1.48 0.72 s0.90334 0.55 1.27 0.89 s0.66332 0.74 0.88998 1.2 s0.34 1.01 0.34 1.65 z M38.2015 14.8 c-0.01334 0.74666 -0.040038 1.4466 -0.080038 2.1 s-0.17666 1.2233 -0.41 1.71 s-0.60334 0.87 -1.11 1.15 s-1.2267 0.42 -2.16 0.42 c-0.65334 0 -1.2067 -0.09666 -1.66 -0.29 s-0.82 -0.46668 -1.1 -0.82002 s-0.48334 -0.78 -0.61 -1.28 s-0.19 -1.0567 -0.19 -1.67 l0 -7.2 c0 -0.65334 0.06666 -1.2333 0.2 -1.74 s0.35 -0.93332 0.65 -1.28 s0.69 -0.60666 1.17 -0.78 s1.0667 -0.26 1.76 -0.26 c0.84 0 1.4933 0.14334 1.96 0.43 s0.81666 0.67 1.05 1.15 s0.37668 1.03 0.43002 1.65 s0.08668 1.2633 0.10002 1.93 l-1.32 0 c0 -0.44 -0.0033398 -0.89334 -0.01 -1.36 s-0.07332 -0.89 -0.19998 -1.27 s-0.34666 -0.69334 -0.66 -0.94 s-0.77668 -0.37 -1.39 -0.37 c-0.46666 0 -0.85666 0.06666 -1.17 0.2 s-0.56 0.32668 -0.74 0.58002 s-0.30666 0.55334 -0.38 0.9 s-0.11 0.73332 -0.11 1.16 l0.04 7.3 c0 0.4 0.03 0.76334 0.09 1.09 s0.17 0.60666 0.33 0.84 s0.38334 0.41334 0.67 0.54 s0.65 0.19 1.09 0.19 c0.68 0 1.1867 -0.11666 1.52 -0.35 s0.56668 -0.54334 0.70002 -0.93 s0.20334 -0.82332 0.21 -1.31 s0.01 -0.98332 0.01 -1.49 l1.32 0 z M50.962 16.12 c0 1.4133 -0.31666 2.4434 -0.95 3.09 s-1.6633 0.97 -3.09 0.97 c-1.3067 0 -2.2634 -0.36 -2.87 -1.08 s-0.91 -1.7133 -0.91 -2.98 l0 -7.2 c0 -1.3733 0.32334 -2.3934 0.97 -3.06 s1.6633 -1 3.05 -1 c1.32 0 2.2834 0.35 2.89 1.05 s0.91 1.69 0.91 2.97 l0 7.24 z M49.562000000000005 16.08 l-0.000019531 -7.22 c0 -0.76 -0.2 -1.3933 -0.6 -1.9 s-1.0067 -0.76 -1.82 -0.76 c-0.97334 0 -1.65 0.25334 -2.03 0.76 s-0.57 1.22 -0.57 2.14 l0 6.9 c0 0.38666 0.04334 0.75 0.13 1.09 s0.22666 0.63666 0.42 0.89 s0.44 0.45334 0.74 0.6 s0.66334 0.22 1.09 0.22 c0.93334 0 1.6067 -0.22666 2.02 -0.68 s0.62 -1.1333 0.62 -2.04 z M64.3825 5 l-4.08 15 l-1.14 0 l-4.06 -15 l1.42 0 l3.2 12.32 l3.28 -12.32 l1.38 0 z M75.98299999999999 20 l-7.5 0 l0 -15 l7.36 0 l0 1.52 l-5.98 0 l0 5.16 l5.94 0 l0 1.3 l-5.94 0 l0 5.5 l6.12 0 l0 1.52 z M89.24349999999998 20 l-1.72 -0.000019531 l-3.14 -6.06 l-2.6 0 l0 6.06 l-1.34 0 l0 -15 l3.44 0 c1.3733 0 2.46 0.39334 3.26 1.18 s1.2 1.8667 1.2 3.24 c0 0.42666 -0.05666 0.86 -0.17 1.3 s-0.27668 0.85334 -0.49002 1.24 s-0.47668 0.73666 -0.79002 1.05 s-0.67 0.55668 -1.07 0.73002 z M86.92349999999999 9.32 c0 -0.46666 -0.08 -0.88664 -0.24 -1.26 s-0.38 -0.69 -0.66 -0.95 s-0.61334 -0.46 -1 -0.6 s-0.80666 -0.21 -1.26 -0.21 l-1.98 0 l0 6.26 l2.1 0 c1.0667 0 1.84 -0.28666 2.32 -0.86 s0.72 -1.3667 0.72 -2.38 z M108.82449999999999 5 l-3.54 8.16 l0 6.84 l-1.44 0 l0 -6.84 l-3.54 -8.16 l1.6 0 l2.64 6.44 l2.68 -6.44 l1.6 0 z M120.38499999999999 16.12 c0 1.4133 -0.31666 2.4434 -0.95 3.09 s-1.6633 0.97 -3.09 0.97 c-1.3067 0 -2.2634 -0.36 -2.87 -1.08 s-0.91 -1.7133 -0.91 -2.98 l0 -7.2 c0 -1.3733 0.32334 -2.3934 0.97 -3.06 s1.6633 -1 3.05 -1 c1.32 0 2.2834 0.35 2.89 1.05 s0.91 1.69 0.91 2.97 l0 7.24 z M118.985 16.08 l-0.000019531 -7.22 c0 -0.76 -0.2 -1.3933 -0.6 -1.9 s-1.0067 -0.76 -1.82 -0.76 c-0.97334 0 -1.65 0.25334 -2.03 0.76 s-0.57 1.22 -0.57 2.14 l0 6.9 c0 0.38666 0.04334 0.75 0.13 1.09 s0.22666 0.63666 0.42 0.89 s0.44 0.45334 0.74 0.6 s0.66334 0.22 1.09 0.22 c0.93334 0 1.6067 -0.22666 2.02 -0.68 s0.62 -1.1333 0.62 -2.04 z M133.3455 16.12 c0 1.3333 -0.32336 2.3434 -0.97002 3.03 s-1.6433 1.03 -2.99 1.03 c-1.28 0 -2.2434 -0.36666 -2.89 -1.1 s-0.97 -1.72 -0.97 -2.96 l0 -11.12 l1.42 0 l0 11.06 c0 0.37334 0.05 0.72334 0.15 1.05 s0.25 0.61332 0.45 0.85998 s0.45 0.44 0.75 0.58 s0.65 0.21 1.05 0.21 c0.97334 0 1.65 -0.27 2.03 -0.81 s0.57 -1.2633 0.57 -2.17 l0 -10.78 l1.4 0 l0 11.12 z M147.366 20 l-1.72 -0.000019531 l-3.14 -6.06 l-2.6 0 l0 6.06 l-1.34 0 l0 -15 l3.44 0 c1.3733 0 2.46 0.39334 3.26 1.18 s1.2 1.8667 1.2 3.24 c0 0.42666 -0.05666 0.86 -0.17 1.3 s-0.27668 0.85334 -0.49002 1.24 s-0.47668 0.73666 -0.79002 1.05 s-0.67 0.55668 -1.07 0.73002 z M145.046 9.32 c0 -0.46666 -0.08 -0.88664 -0.24 -1.26 s-0.38 -0.69 -0.66 -0.95 s-0.61334 -0.46 -1 -0.6 s-0.80666 -0.21 -1.26 -0.21 l-1.98 0 l0 6.26 l2.1 0 c1.0667 0 1.84 -0.28666 2.32 -0.86 s0.72 -1.3667 0.72 -2.38 z M165.90699999999998 12.18 c0 0.49334 0.0033984 1.03 0.010059 1.61 s-0.01668 1.16 -0.07002 1.74 s-0.15 1.14 -0.29 1.68 s-0.35666 1.0167 -0.65 1.43 s-0.67668 0.74334 -1.15 0.99 s-1.0633 0.37 -1.77 0.37 l-3.64 0 l0 -15 l3.5 0 c0.73334 0 1.34 0.10334 1.82 0.31 s0.87334 0.48666 1.18 0.84 s0.53332 0.76668 0.67998 1.24 s0.24666 0.97668 0.3 1.51 s0.08 1.08 0.08 1.64 l0 1.64 z M164.547 12.32 l0.000019531 -0.85996 c0 -0.37334 -0.01 -0.76 -0.03 -1.16 s-0.04666 -0.78 -0.08 -1.14 s-0.07668 -0.62666 -0.13002 -0.8 c-0.22666 -0.66666 -0.54 -1.16 -0.94 -1.48 s-0.96 -0.48 -1.68 -0.48 l-2 0 l0 12.16 l2.26 0 c0.29334 0 0.56 -0.05334 0.8 -0.16 s0.46 -0.25 0.66 -0.43 s0.37 -0.38666 0.51 -0.62 s0.25666 -0.47668 0.35 -0.73002 c0.06666 -0.17334 0.11666 -0.45668 0.15 -0.85002 s0.06 -0.81 0.08 -1.25 s0.03334 -0.86334 0.04 -1.27 s0.01 -0.71666 0.01 -0.93 z M172.2275 20 l-1.5 0 l0 -15 l1.5 0 l0 15 z M186.108 20 l-1.72 -0.000019531 l-3.14 -6.06 l-2.6 0 l0 6.06 l-1.34 0 l0 -15 l3.44 0 c1.3733 0 2.46 0.39334 3.26 1.18 s1.2 1.8667 1.2 3.24 c0 0.42666 -0.05666 0.86 -0.17 1.3 s-0.27668 0.85334 -0.49002 1.24 s-0.47668 0.73666 -0.79002 1.05 s-0.67 0.55668 -1.07 0.73002 z M183.78799999999998 9.32 c0 -0.46666 -0.08 -0.88664 -0.24 -1.26 s-0.38 -0.69 -0.66 -0.95 s-0.61334 -0.46 -1 -0.6 s-0.80666 -0.21 -1.26 -0.21 l-1.98 0 l0 6.26 l2.1 0 c1.0667 0 1.84 -0.28666 2.32 -0.86 s0.72 -1.3667 0.72 -2.38 z M198.0485 20 l-7.5 0 l0 -15 l7.36 0 l0 1.52 l-5.98 0 l0 5.16 l5.94 0 l0 1.3 l-5.94 0 l0 5.5 l6.12 0 l0 1.52 z M209.34900000000002 14.8 c-0.01334 0.74666 -0.040038 1.4466 -0.080038 2.1 s-0.17666 1.2233 -0.41 1.71 s-0.60334 0.87 -1.11 1.15 s-1.2267 0.42 -2.16 0.42 c-0.65334 0 -1.2067 -0.09666 -1.66 -0.29 s-0.82 -0.46668 -1.1 -0.82002 s-0.48334 -0.78 -0.61 -1.28 s-0.19 -1.0567 -0.19 -1.67 l0 -7.2 c0 -0.65334 0.06666 -1.2333 0.2 -1.74 s0.35 -0.93332 0.65 -1.28 s0.69 -0.60666 1.17 -0.78 s1.0667 -0.26 1.76 -0.26 c0.84 0 1.4933 0.14334 1.96 0.43 s0.81666 0.67 1.05 1.15 s0.37668 1.03 0.43002 1.65 s0.08668 1.2633 0.10002 1.93 l-1.32 0 c0 -0.44 -0.0033398 -0.89334 -0.01 -1.36 s-0.07332 -0.89 -0.19998 -1.27 s-0.34666 -0.69334 -0.66 -0.94 s-0.77668 -0.37 -1.39 -0.37 c-0.46666 0 -0.85666 0.06666 -1.17 0.2 s-0.56 0.32668 -0.74 0.58002 s-0.30666 0.55334 -0.38 0.9 s-0.11 0.73332 -0.11 1.16 l0.04 7.3 c0 0.4 0.03 0.76334 0.09 1.09 s0.17 0.60666 0.33 0.84 s0.38334 0.41334 0.67 0.54 s0.65 0.19 1.09 0.19 c0.68 0 1.1867 -0.11666 1.52 -0.35 s0.56668 -0.54334 0.70002 -0.93 s0.20334 -0.82332 0.21 -1.31 s0.01 -0.98332 0.01 -1.49 l1.32 0 z M221.2495 6.460000000000001 l-3.1 0 l0 13.54 l-1.48 0 l0 -13.54 l-3.1 0 l0 -1.46 l7.68 0 l0 1.46 z M227.41 20 l-1.5 0 l0 -15 l1.5 0 l0 15 z M240.3105 16.12 c0 1.4133 -0.31666 2.4434 -0.95 3.09 s-1.6633 0.97 -3.09 0.97 c-1.3067 0 -2.2634 -0.36 -2.87 -1.08 s-0.91 -1.7133 -0.91 -2.98 l0 -7.2 c0 -1.3733 0.32334 -2.3934 0.97 -3.06 s1.6633 -1 3.05 -1 c1.32 0 2.2834 0.35 2.89 1.05 s0.91 1.69 0.91 2.97 l0 7.24 z M238.91049999999998 16.08 l-0.000019531 -7.22 c0 -0.76 -0.2 -1.3933 -0.6 -1.9 s-1.0067 -0.76 -1.82 -0.76 c-0.97334 0 -1.65 0.25334 -2.03 0.76 s-0.57 1.22 -0.57 2.14 l0 6.9 c0 0.38666 0.04334 0.75 0.13 1.09 s0.22666 0.63666 0.42 0.89 s0.44 0.45334 0.74 0.6 s0.66334 0.22 1.09 0.22 c0.93334 0 1.6067 -0.22666 2.02 -0.68 s0.62 -1.1333 0.62 -2.04 z M253.431 20 l-1.56 0 l-5.2 -11.8 l0 11.8 l-1.44 0 l0 -15 l1.44 0 l5.22 11.3 l0.12 -11.3 l1.42 0 l0 15 z M260.2315 20 l-1.58 1.24 l0 -2.78 l1.58 0 l0 1.54 z M279.0125 20 l-7.5 0 l0 -15 l7.36 0 l0 1.52 l-5.98 0 l0 5.16 l5.94 0 l0 1.3 l-5.94 0 l0 5.5 l6.12 0 l0 1.52 z M294.013 20 l-1.34 0 l0 -11.58 l-3.14 7.62 l-1.36 -0.02 l-3.06 -7.6 l0 11.58 l-1.34 0 l0 -15 l1.34 0 l3.76 9.18 l3.8 -9.18 l1.34 0 l0 15 z M306.79349999999994 15.54 c0 1.4 -0.39336 2.4934 -1.18 3.28 s-1.88 1.18 -3.28 1.18 l-3.44 0 l0 -15 l2.98 0 c1.32 0 2.3366 0.32334 3.05 0.97 s1.07 1.6367 1.07 2.97 c0 0.56 -0.15334 1.0833 -0.46 1.57 s-0.67332 0.90332 -1.1 1.25 c0.68 0.44 1.2433 0.96666 1.69 1.58 s0.67 1.3467 0.67 2.2 z M304.67349999999993 8.94 c0 -0.73334 -0.2 -1.3434 -0.6 -1.83 s-0.98666 -0.73 -1.76 -0.73 l-2.04 0 l0 4.86 l2.24 0 c0.32 0 0.61 -0.06334 0.87 -0.19 s0.48666 -0.29332 0.68 -0.49998 s0.34334 -0.45 0.45 -0.73 s0.16 -0.57334 0.16 -0.88 z M305.45349999999996 15.620000000000001 c0 -0.96 -0.26664 -1.7033 -0.79998 -2.23 s-1.2733 -0.79 -2.22 -0.79 l-2.16 0 l0 5.98 l1.84 0 c0.46666 0 0.90332 -0.06 1.31 -0.18 s0.76 -0.3 1.06 -0.54 s0.53666 -0.54666 0.71 -0.92 s0.26 -0.81334 0.26 -1.32 z M319.93399999999997 20 l-1.72 -0.000019531 l-3.14 -6.06 l-2.6 0 l0 6.06 l-1.34 0 l0 -15 l3.44 0 c1.3733 0 2.46 0.39334 3.26 1.18 s1.2 1.8667 1.2 3.24 c0 0.42666 -0.05666 0.86 -0.17 1.3 s-0.27668 0.85334 -0.49002 1.24 s-0.47668 0.73666 -0.79002 1.05 s-0.67 0.55668 -1.07 0.73002 z M317.614 9.32 c0 -0.46666 -0.08 -0.88664 -0.24 -1.26 s-0.38 -0.69 -0.66 -0.95 s-0.61334 -0.46 -1 -0.6 s-0.80666 -0.21 -1.26 -0.21 l-1.98 0 l0 6.26 l2.1 0 c1.0667 0 1.84 -0.28666 2.32 -0.86 s0.72 -1.3667 0.72 -2.38 z M333.19449999999995 20 l-1.4 0 l-1.06 -4.3 l-4.36 0 l-1.06 4.3 l-1.36 0 l4.06 -15 l1.14 0 z M330.39449999999994 14.36 l-1.78 -7.42 l-1.9 7.42 l3.68 0 z M344.2149999999999 14.8 c-0.01334 0.74666 -0.040038 1.4466 -0.080038 2.1 s-0.17666 1.2233 -0.41 1.71 s-0.60334 0.87 -1.11 1.15 s-1.2267 0.42 -2.16 0.42 c-0.65334 0 -1.2067 -0.09666 -1.66 -0.29 s-0.82 -0.46668 -1.1 -0.82002 s-0.48334 -0.78 -0.61 -1.28 s-0.19 -1.0567 -0.19 -1.67 l0 -7.2 c0 -0.65334 0.06666 -1.2333 0.2 -1.74 s0.35 -0.93332 0.65 -1.28 s0.69 -0.60666 1.17 -0.78 s1.0667 -0.26 1.76 -0.26 c0.84 0 1.4933 0.14334 1.96 0.43 s0.81666 0.67 1.05 1.15 s0.37668 1.03 0.43002 1.65 s0.08668 1.2633 0.10002 1.93 l-1.32 0 c0 -0.44 -0.0033398 -0.89334 -0.01 -1.36 s-0.07332 -0.89 -0.19998 -1.27 s-0.34666 -0.69334 -0.66 -0.94 s-0.77668 -0.37 -1.39 -0.37 c-0.46666 0 -0.85666 0.06666 -1.17 0.2 s-0.56 0.32668 -0.74 0.58002 s-0.30666 0.55334 -0.38 0.9 s-0.11 0.73332 -0.11 1.16 l0.04 7.3 c0 0.4 0.03 0.76334 0.09 1.09 s0.17 0.60666 0.33 0.84 s0.38334 0.41334 0.67 0.54 s0.65 0.19 1.09 0.19 c0.68 0 1.1867 -0.11666 1.52 -0.35 s0.56668 -0.54334 0.70002 -0.93 s0.20334 -0.82332 0.21 -1.31 s0.01 -0.98332 0.01 -1.49 l1.32 0 z M356.5354999999999 20 l-7.5 0 l0 -15 l7.36 0 l0 1.52 l-5.98 0 l0 5.16 l5.94 0 l0 1.3 l-5.94 0 l0 5.5 l6.12 0 l0 1.52 z M375.41649999999987 20 l-7.5 0 l0 -15 l7.36 0 l0 1.52 l-5.98 0 l0 5.16 l5.94 0 l0 1.3 l-5.94 0 l0 5.5 l6.12 0 l0 1.52 z M388.37699999999984 5 l-4.08 15 l-1.14 0 l-4.06 -15 l1.42 0 l3.2 12.32 l3.28 -12.32 l1.38 0 z M399.97749999999985 20 l-7.5 0 l0 -15 l7.36 0 l0 1.52 l-5.98 0 l0 5.16 l5.94 0 l0 1.3 l-5.94 0 l0 5.5 l6.12 0 l0 1.52 z M413.23799999999983 20 l-1.72 -0.000019531 l-3.14 -6.06 l-2.6 0 l0 6.06 l-1.34 0 l0 -15 l3.44 0 c1.3733 0 2.46 0.39334 3.26 1.18 s1.2 1.8667 1.2 3.24 c0 0.42666 -0.05666 0.86 -0.17 1.3 s-0.27668 0.85334 -0.49002 1.24 s-0.47668 0.73666 -0.79002 1.05 s-0.67 0.55668 -1.07 0.73002 z M410.91799999999984 9.32 c0 -0.46666 -0.08 -0.88664 -0.24 -1.26 s-0.38 -0.69 -0.66 -0.95 s-0.61334 -0.46 -1 -0.6 s-0.80666 -0.21 -1.26 -0.21 l-1.98 0 l0 6.26 l2.1 0 c1.0667 0 1.84 -0.28666 2.32 -0.86 s0.72 -1.3667 0.72 -2.38 z M424.6384999999998 5 l-3.54 8.16 l0 6.84 l-1.44 0 l0 -6.84 l-3.54 -8.16 l1.6 0 l2.64 6.44 l2.68 -6.44 l1.6 0 z M443.7594999999998 20 l-1.52 0 l-0.02 -6.8 l-4.8 0 l0.02 6.8 l-1.5 0 l0 -15 l1.5 0 l-0.02 6.78 l4.8 0 l0.02 -6.78 l1.52 0 l0 15 z M456.69999999999976 16.12 c0 1.3333 -0.32336 2.3434 -0.97002 3.03 s-1.6433 1.03 -2.99 1.03 c-1.28 0 -2.2434 -0.36666 -2.89 -1.1 s-0.97 -1.72 -0.97 -2.96 l0 -11.12 l1.42 0 l0 11.06 c0 0.37334 0.05 0.72334 0.15 1.05 s0.25 0.61332 0.45 0.85998 s0.45 0.44 0.75 0.58 s0.65 0.21 1.05 0.21 c0.97334 0 1.65 -0.27 2.03 -0.81 s0.57 -1.2633 0.57 -2.17 l0 -10.78 l1.4 0 l0 11.12 z M468.9604999999998 20 l-7.5 0 l0 -15 l7.36 0 l0 1.52 l-5.98 0 l0 5.16 l5.94 0 l0 1.3 l-5.94 0 l0 5.5 l6.12 0 l0 1.52 z"/></g>
			</g>
		</svg>