<?xml version="1.0" standalone="no"?>
<!DOCTYPE svg PUBLIC "-//W3C//DTD SVG 20010904//EN"
 "http://www.w3.org/TR/2001/REC-SVG-20010904/DTD/svg10.dtd">
<svg version="1.0" xmlns="http://www.w3.org/2000/svg"
 width="743.000000pt" height="801.000000pt" viewBox="0 0 743.000000 801.000000"
 preserveAspectRatio="xMidYMid meet">

<g transform="translate(0.000000,801.000000) scale(0.100000,-0.100000)"
fill="#000000" stroke="none">
<path d="M3658 7760 c-26 -5 -73 -20 -105 -35 -32 -14 -715 -405 -1517 -868
-1558 -899 -1519 -875 -1585 -991 -65 -115 -62 -11 -59 -1921 l3 -1730 28 -70
c33 -82 76 -141 143 -193 54 -42 2880 -1677 2981 -1724 123 -58 258 -56 388 6
102 49 2941 1691 2980 1723 49 42 107 126 135 196 l25 62 3 1710 c2 1174 -1
1732 -8 1780 -16 103 -58 185 -132 258 -56 54 -222 152 -1520 903 -802 463
-1481 851 -1509 863 -50 22 -144 42 -184 40 -11 -1 -41 -5 -67 -9z m-482
-1364 c41 -19 55 -33 73 -68 11 -24 21 -61 21 -82 0 -46 -31 -109 -68 -136
-15 -11 -151 -91 -302 -178 l-275 -158 0 -1034 0 -1034 237 -137 237 -137 588
340 c668 386 646 374 696 383 92 18 187 -63 187 -157 0 -57 -18 -105 -51 -134
-35 -31 -1286 -754 -1342 -776 -57 -22 -91 -23 -145 -4 -47 17 -593 332 -663
382 -29 21 -55 51 -68 79 -21 45 -21 46 -21 1194 0 1252 -3 1180 57 1248 29
33 664 407 718 422 48 14 67 12 121 -13z m1319 -10 c50 -23 567 -321 636 -366
20 -13 47 -40 60 -59 l24 -35 3 -455 c2 -291 -1 -469 -7 -491 -14 -47 -59 -74
-113 -67 -24 3 -87 33 -156 73 -64 37 -212 122 -327 189 l-210 122 -565 -327
-565 -327 -5 -360 -5 -360 -28 -36 c-40 -53 -79 -70 -147 -65 -69 5 -115 35
-141 92 -17 38 -19 72 -19 429 0 254 4 404 11 433 7 27 25 58 48 82 23 23 259
165 639 385 777 450 704 412 779 411 60 0 67 -4 260 -114 109 -62 201 -115
206 -117 4 -2 7 76 7 174 l0 178 -192 110 c-105 61 -213 122 -238 137 l-47 27
-149 -86 c-82 -47 -357 -207 -612 -355 -255 -147 -481 -272 -503 -277 -69 -16
-132 7 -175 64 -61 80 -35 188 60 250 67 43 1205 700 1276 737 69 35 127 36
195 4z m15 -1511 c19 -9 172 -97 338 -194 333 -193 352 -208 372 -305 7 -35
10 -408 8 -1176 l-3 -1125 -22 -41 c-12 -23 -39 -55 -60 -71 -21 -16 -182
-112 -357 -213 -281 -162 -326 -184 -372 -188 -102 -8 -178 66 -177 172 1 90
22 108 348 296 l290 168 0 1037 0 1037 -230 134 c-126 73 -234 134 -239 134
-5 0 -137 -74 -293 -165 -157 -91 -302 -169 -324 -174 -79 -18 -148 15 -187
90 -18 34 -22 54 -18 89 12 87 27 100 371 300 174 102 331 191 349 199 71 32
139 31 206 -4z m-27 -1493 c25 -10 47 -30 63 -57 l24 -42 0 -414 c0 -467 0
-466 -76 -526 -35 -28 -1193 -701 -1294 -753 -30 -15 -61 -22 -102 -22 -58 0
-63 2 -379 184 -177 100 -339 198 -361 217 -78 67 -78 64 -78 519 0 427 1 439
48 488 12 12 42 30 68 40 39 15 53 16 89 6 23 -6 171 -86 328 -177 l287 -165
296 169 c330 190 352 198 429 161 110 -53 129 -211 34 -282 -39 -29 -640 -378
-682 -396 -15 -7 -50 -12 -78 -12 -57 0 -88 14 -295 135 -77 45 -151 88 -162
94 l-22 12 0 -179 0 -178 232 -134 c128 -74 239 -134 248 -134 8 0 266 144
572 319 l557 320 1 343 c0 374 1 382 58 439 52 51 114 60 195 25z"/>
</g>
</svg>
