<?xml version="1.0" standalone="no"?>
<!DOCTYPE svg PUBLIC "-//W3C//DTD SVG 20010904//EN"
 "http://www.w3.org/TR/2001/REC-SVG-20010904/DTD/svg10.dtd">
<svg version="1.0" xmlns="http://www.w3.org/2000/svg"
 width="398.000000pt" height="537.000000pt" viewBox="0 0 398.000000 537.000000"
 preserveAspectRatio="xMidYMid meet">

<g transform="translate(0.000000,537.000000) scale(0.100000,-0.100000)"
fill="#000000" stroke="none">
<path d="M1220 5101 c-30 -16 -190 -107 -355 -203 -355 -207 -359 -210 -370
-350 -3 -46 -5 -569 -3 -1163 3 -1210 -3 -1119 77 -1186 52 -45 610 -369 675
-392 60 -22 116 -18 179 14 98 50 1284 743 1305 762 36 34 52 71 52 125 0 119
-120 194 -232 144 -25 -10 -311 -173 -636 -361 -326 -189 -598 -341 -605 -339
-8 2 -118 63 -245 137 l-232 134 2 1035 3 1035 285 164 c156 90 295 174 308
186 81 75 61 215 -38 265 -59 29 -103 28 -170 -7z"/>
<path d="M2525 5103 c-59 -31 -1191 -686 -1260 -728 -84 -52 -115 -98 -115
-170 0 -111 109 -185 221 -150 13 4 280 156 594 338 314 181 588 340 610 353
l41 23 239 -138 240 -138 3 -181 c1 -100 0 -182 -2 -182 -3 0 -83 46 -178 101
-95 56 -191 110 -213 120 -54 25 -126 24 -178 -2 -122 -61 -1294 -748 -1320
-773 -61 -61 -61 -67 -65 -461 -2 -198 -1 -383 3 -412 21 -168 210 -223 309
-90 20 27 21 43 26 389 l5 360 255 147 c140 81 395 229 566 328 l312 180 318
-184 c175 -101 337 -189 360 -195 32 -9 49 -9 74 2 59 25 60 31 60 534 l0 454
-32 48 c-30 43 -60 63 -323 216 -387 226 -392 228 -462 228 -33 -1 -71 -8 -88
-17z"/>
<path d="M2554 3606 c-22 -7 -143 -73 -270 -146 -417 -241 -437 -255 -462
-298 -42 -76 -20 -171 53 -220 25 -18 47 -23 90 -23 55 0 64 4 351 171 195
113 301 169 312 165 10 -3 119 -65 245 -138 l227 -131 0 -1036 -1 -1035 -261
-150 c-144 -82 -281 -162 -304 -177 -79 -50 -105 -145 -61 -223 42 -75 124
-105 204 -74 43 16 633 358 676 392 21 16 48 48 60 71 l22 41 0 1155 0 1155
-22 41 c-12 23 -36 53 -52 67 -28 23 -549 331 -636 375 -54 27 -121 34 -171
18z"/>
<path d="M2569 2110 c-43 -13 -74 -38 -97 -79 -21 -38 -22 -47 -22 -383 0
-316 -1 -346 -17 -360 -13 -10 -1030 -599 -1115 -645 -3 -2 -114 59 -245 135
l-238 138 -3 182 c-1 100 -1 182 2 182 2 0 82 -45 177 -101 96 -56 191 -110
211 -120 44 -22 124 -25 171 -5 50 21 659 376 685 400 40 36 55 74 50 133 -7
86 -62 142 -145 150 -60 6 -58 7 -403 -192 -140 -81 -260 -148 -265 -148 -6 0
-125 66 -265 148 -313 182 -339 195 -384 195 -79 0 -145 -53 -167 -132 -7 -28
-10 -166 -7 -427 3 -376 4 -387 25 -427 12 -23 39 -55 60 -71 36 -28 548 -325
640 -372 51 -26 140 -28 186 -5 118 59 1278 736 1311 766 27 23 47 51 54 76 8
27 12 163 12 449 l0 410 -29 40 c-43 59 -114 84 -182 63z"/>
</g>
</svg>
