<?xml version="1.0" standalone="no"?>
<!DOCTYPE svg PUBLIC "-//W3C//DTD SVG 20010904//EN"
 "http://www.w3.org/TR/2001/REC-SVG-20010904/DTD/svg10.dtd">
<svg version="1.0" xmlns="http://www.w3.org/2000/svg"
 width="2141.000000pt" height="389.000000pt" viewBox="0 0 2141.000000 389.000000"
 preserveAspectRatio="xMidYMid meet">

<g transform="translate(0.000000,389.000000) scale(0.100000,-0.100000)"
fill="#000000" stroke="none">
<path d="M774 3595 c-152 -33 -225 -104 -269 -260 -25 -89 -32 -434 -12 -532
31 -146 116 -263 270 -371 124 -86 183 -146 219 -220 l33 -67 0 -195 c0 -210
-7 -249 -50 -290 -31 -29 -99 -33 -138 -7 -38 25 -58 104 -66 266 l-6 136
-137 3 -138 3 0 -43 c0 -86 22 -275 40 -355 41 -173 111 -257 240 -287 129
-31 273 -15 362 38 138 82 186 251 175 610 -4 145 -8 182 -29 247 -45 138
-107 212 -281 331 -122 82 -180 143 -207 215 -20 52 -22 76 -22 226 1 196 12
266 51 309 23 26 36 31 73 32 87 2 111 -43 130 -241 l12 -123 135 0 134 0 -6
94 c-21 317 -111 456 -313 486 -88 12 -125 12 -200 -5z"/>
<path d="M1910 3597 c-176 -41 -243 -159 -270 -477 -13 -152 -13 -1035 0
-1220 29 -400 106 -521 341 -537 161 -11 273 44 328 162 46 98 81 299 81 465
l0 70 -125 0 c-112 0 -125 -2 -125 -17 -1 -72 -21 -281 -30 -313 -6 -22 -21
-52 -34 -67 -20 -23 -32 -28 -67 -27 -54 2 -82 32 -100 106 -27 118 -27 1416
1 1536 15 66 44 101 90 108 74 12 114 -59 125 -220 3 -45 8 -96 11 -113 l5
-33 126 0 126 0 -7 83 c-21 250 -67 377 -161 445 -22 16 -56 34 -75 40 -58 18
-180 23 -240 9z"/>
<path d="M13483 3595 c-220 -49 -292 -192 -293 -575 0 -165 15 -252 59 -346
39 -82 100 -148 236 -250 138 -103 177 -144 212 -219 28 -59 28 -62 28 -260 0
-189 -1 -203 -23 -247 -20 -40 -30 -49 -63 -58 -49 -13 -103 1 -124 34 -22 33
-36 115 -43 254 l-7 127 -137 3 -138 3 0 -33 c0 -68 22 -275 35 -339 31 -146
91 -246 174 -288 59 -30 153 -44 252 -38 185 12 290 99 335 278 25 99 31 448
10 559 -31 168 -111 276 -292 397 -110 74 -174 137 -206 200 -22 46 -23 57
-23 258 1 165 4 218 16 250 18 46 50 71 100 80 31 6 42 2 69 -22 38 -34 57
-102 66 -245 l7 -98 133 0 c73 0 135 3 137 8 7 12 -12 188 -28 263 -32 155
-111 262 -216 293 -75 23 -204 28 -276 11z"/>
<path d="M15394 3596 c-185 -42 -256 -150 -296 -446 -19 -136 -18 -1130 0
-1295 33 -288 102 -422 245 -472 78 -27 262 -24 337 5 126 50 192 160 225 380
35 227 38 1208 5 1427 -35 234 -106 347 -245 390 -72 23 -198 27 -271 11z
m187 -229 c25 -16 47 -63 62 -134 18 -85 17 -1341 -1 -1436 -24 -129 -53 -161
-144 -160 -40 1 -55 6 -75 26 -50 50 -54 92 -64 642 -13 710 2 985 56 1045 35
38 118 47 166 17z"/>
<path d="M2975 3582 c-100 -34 -159 -97 -194 -205 -52 -161 -61 -326 -61
-1234 l0 -753 140 0 140 0 0 315 0 315 135 0 135 0 0 -315 0 -316 138 3 137 3
-2 799 c-1 474 -6 850 -13 927 -24 290 -92 418 -247 464 -72 21 -243 20 -308
-3z m230 -226 c52 -52 64 -192 65 -728 l0 -388 -136 0 -135 0 3 493 c5 539 9
578 63 624 37 32 107 32 140 -1z"/>
<path d="M3960 2486 l0 -1096 135 0 135 0 0 520 0 520 91 0 c88 0 92 -1 119
-30 56 -59 72 -162 95 -583 8 -155 17 -315 21 -354 l6 -73 134 0 c122 0 134 2
134 18 0 18 -45 556 -56 667 -25 264 -54 390 -97 420 -21 15 -21 16 -4 43 63
96 90 207 102 417 8 141 -7 319 -34 398 -37 106 -95 168 -193 205 -35 13 -95
17 -315 20 l-273 3 0 -1095z m490 859 c19 -10 34 -31 47 -62 15 -41 18 -78 18
-263 0 -234 -10 -301 -50 -344 -23 -25 -29 -26 -130 -26 l-105 0 0 355 0 355
95 0 c65 0 105 -5 125 -15z"/>
<path d="M5190 2485 l0 -1095 315 0 315 0 0 135 0 135 -177 2 -178 3 -3 958
-2 957 -135 0 -135 0 0 -1095z"/>
<path d="M6120 2485 l0 -1095 315 0 315 0 0 135 0 135 -177 2 -178 3 0 380 0
380 150 5 150 5 0 105 0 105 -150 5 -150 5 0 350 0 350 178 3 177 2 0 110 0
110 -315 0 -315 0 0 -1095z"/>
<path d="M6972 3458 l3 -123 132 -3 133 -3 2 -967 3 -967 138 -3 137 -3 0 970
0 970 133 3 132 3 3 123 3 122 -411 0 -411 0 3 -122z"/>
<path d="M7984 3567 c-2 -7 -3 -62 -2 -123 l3 -109 138 -3 137 -3 0 -969 0
-970 135 0 135 0 0 970 0 969 138 3 137 3 0 120 0 120 -408 3 c-331 2 -408 0
-413 -11z"/>
<path d="M9850 2485 l0 -1095 135 0 135 0 0 520 0 521 138 -3 137 -3 3 -517 2
-518 135 0 135 0 0 1095 0 1095 -135 0 -135 0 -2 -462 -3 -463 -137 -3 -138
-3 0 466 0 465 -135 0 -135 0 0 -1095z"/>
<path d="M11070 2783 c0 -939 7 -1059 70 -1227 30 -79 97 -146 171 -172 74
-26 252 -26 326 -1 158 55 222 209 243 583 5 98 10 502 10 897 l0 718 -137 -3
-138 -3 -6 -890 c-6 -908 -7 -933 -44 -1006 -27 -51 -122 -60 -163 -15 -55 60
-62 186 -62 1129 l0 787 -135 0 -135 0 0 -797z"/>
<path d="M12290 2485 l0 -1095 315 0 315 0 0 135 0 135 -180 0 -180 0 0 385 0
385 150 0 150 0 0 110 0 110 -150 0 -150 0 0 355 0 355 180 0 180 0 0 110 0
110 -315 0 -315 0 0 -1095z"/>
<path d="M16320 2485 l0 -1095 135 0 135 0 2 463 3 462 123 3 122 3 0 109 0
109 -122 3 -123 3 0 405 0 405 150 5 150 5 0 105 0 105 -287 3 -288 2 0 -1095z"/>
<path d="M17967 3573 c-4 -3 -7 -496 -7 -1095 l0 -1088 315 0 315 0 0 135 0
135 -175 0 -175 0 0 960 0 960 -133 0 c-74 0 -137 -3 -140 -7z"/>
<path d="M18900 2485 l0 -1095 135 0 135 0 0 1095 0 1095 -135 0 -135 0 0
-1095z"/>
<path d="M19580 2485 l0 -1095 135 0 135 0 2 463 3 462 123 3 122 3 0 109 0
109 -122 3 -123 3 0 405 0 405 150 5 150 5 0 105 0 105 -287 3 -288 2 0 -1095z"/>
<path d="M20485 3568 c-3 -7 -4 -499 -3 -1093 l3 -1080 313 -3 312 -2 0 135 0
135 -175 0 -175 0 0 385 0 385 150 0 150 0 0 110 0 110 -150 0 -150 0 0 355 0
355 175 0 175 0 0 110 0 110 -310 0 c-239 0 -312 -3 -315 -12z"/>
<path d="M1217 700 c-41 -12 -54 -26 -73 -75 -33 -87 6 -158 111 -205 34 -15
71 -40 83 -55 29 -36 28 -87 0 -119 -57 -62 -135 -32 -145 57 -5 45 -8 48 -32
45 -24 -3 -26 -6 -23 -48 7 -87 51 -130 134 -130 131 0 186 156 86 246 -12 12
-50 35 -84 52 -76 38 -89 54 -89 109 0 55 29 83 84 83 56 0 74 -19 81 -81 5
-49 7 -54 30 -54 24 0 25 3 22 49 -4 65 -23 100 -66 120 -37 17 -75 19 -119 6z"/>
<path d="M1632 695 c-53 -24 -62 -59 -62 -257 0 -145 3 -179 18 -208 20 -41
53 -60 103 -60 89 0 124 34 130 130 4 51 2 55 -18 58 -21 3 -23 -1 -23 -37 0
-77 -39 -116 -104 -104 -51 10 -56 31 -56 223 0 192 5 212 56 224 59 15 104
-28 104 -99 0 -31 3 -35 26 -35 23 0 25 3 20 28 -2 15 -7 43 -10 63 -4 20 -17
46 -31 59 -31 29 -106 37 -153 15z"/>
<path d="M2070 693 c-60 -31 -70 -65 -70 -250 0 -191 11 -236 66 -259 69 -29
157 -9 190 42 15 22 19 54 22 183 4 180 -8 243 -50 274 -37 28 -114 33 -158
10z m127 -57 c28 -24 28 -26 32 -156 5 -219 -9 -260 -92 -260 -32 0 -49 6 -63
21 -17 19 -19 38 -19 201 0 177 0 180 24 199 33 27 84 24 118 -5z"/>
<path d="M4513 695 c-58 -25 -67 -53 -71 -207 -6 -185 2 -241 38 -281 26 -30
33 -32 93 -32 35 0 75 6 88 13 49 26 54 45 57 237 2 157 1 184 -15 215 -32 62
-118 87 -190 55z m127 -55 c29 -29 32 -52 28 -224 -3 -152 -4 -159 -27 -177
-25 -20 -81 -25 -111 -9 -30 16 -40 67 -40 211 0 185 14 219 92 219 25 0 45
-7 58 -20z"/>
<path d="M7663 695 c-62 -27 -68 -48 -68 -250 0 -199 8 -236 56 -260 40 -21
108 -19 146 5 35 21 53 67 53 133 0 34 -3 38 -22 35 -20 -3 -24 -11 -28 -54
-3 -28 -11 -58 -18 -67 -20 -23 -58 -29 -96 -13 -45 19 -48 37 -44 244 3 179
6 186 70 197 31 6 41 3 62 -19 20 -19 26 -35 26 -71 0 -41 2 -45 25 -45 22 0
25 4 24 33 0 17 -6 50 -12 72 -20 65 -99 93 -174 60z"/>
<path d="M8744 700 c-44 -14 -62 -39 -74 -100 -13 -68 -13 -252 0 -321 14 -74
43 -101 113 -107 69 -5 119 17 141 63 13 26 16 69 16 199 0 175 -7 213 -47
249 -24 21 -105 30 -149 17z m117 -59 c23 -19 24 -24 27 -195 l3 -176 -25 -25
c-33 -33 -96 -35 -124 -4 -27 28 -32 62 -32 203 0 131 11 190 38 205 28 17 88
13 113 -8z"/>
<path d="M12401 693 c-53 -27 -61 -59 -61 -253 0 -191 9 -228 59 -254 59 -31
151 -14 175 33 8 14 17 52 21 84 7 57 7 57 -19 57 -24 0 -26 -4 -26 -40 0 -76
-38 -116 -100 -103 -55 11 -60 29 -60 223 0 193 5 213 58 223 63 13 102 -24
102 -98 0 -31 3 -35 26 -35 24 0 25 1 18 48 -9 62 -17 83 -43 106 -29 26 -107
31 -150 9z"/>
<path d="M480 434 l0 -267 85 5 c130 9 158 35 176 163 13 94 4 256 -17 300
-23 50 -60 65 -158 65 l-86 0 0 -266z m165 210 c42 -17 64 -134 50 -278 -5
-61 -12 -83 -32 -106 -22 -26 -31 -30 -79 -30 l-54 0 0 210 0 210 49 0 c27 0
57 -3 66 -6z"/>
<path d="M910 448 c0 -139 4 -259 9 -266 5 -8 17 -12 27 -10 18 3 19 18 22
266 l2 262 -30 0 -30 0 0 -252z"/>
<path d="M2446 613 c13 -48 45 -167 71 -263 68 -248 67 -248 159 88 l71 263
-25 -3 c-24 -3 -28 -13 -80 -211 -30 -114 -57 -205 -59 -203 -2 2 -28 95 -57
207 -50 197 -53 204 -78 207 l-26 3 24 -88z"/>
<path d="M2892 438 l3 -263 130 0 130 0 0 25 c0 25 0 25 -107 28 l-108 3 0 94
0 95 105 0 105 0 0 25 0 25 -105 0 -105 0 0 90 0 90 105 0 105 0 0 25 0 25
-130 0 -130 0 2 -262z"/>
<path d="M3312 438 c3 -255 4 -263 23 -263 19 0 20 8 23 108 l3 108 46 -3 47
-3 55 -107 c45 -87 60 -108 78 -108 12 0 24 3 26 8 3 4 -20 52 -50 107 -33 60
-51 105 -46 111 4 7 21 28 37 49 55 68 47 164 -19 225 -24 23 -36 25 -126 28
l-99 4 2 -264z m150 212 c56 -16 81 -54 75 -114 -6 -71 -38 -96 -118 -96 l-59
0 0 110 0 110 33 0 c17 0 49 -5 69 -10z"/>
<path d="M4020 695 c0 -4 27 -69 60 -147 l60 -140 0 -120 c0 -118 0 -119 23
-116 21 3 22 7 27 138 5 118 9 142 31 190 15 30 40 88 57 128 l31 72 -28 0
c-26 0 -30 -7 -71 -105 -23 -58 -45 -105 -49 -105 -3 0 -24 46 -47 103 -36 90
-44 102 -68 105 -14 2 -26 0 -26 -3z"/>
<path d="M4900 490 c0 -230 5 -259 55 -298 58 -46 180 -19 207 46 7 16 13 112
16 245 l4 217 -25 0 -26 0 -3 -209 c-3 -194 -5 -212 -24 -238 -35 -47 -113
-44 -139 7 -12 23 -15 70 -15 235 l0 205 -25 0 -25 0 0 -210z"/>
<path d="M5360 434 l0 -265 23 3 c21 3 22 8 25 111 l3 107 44 0 45 0 55 -110
c48 -96 58 -110 80 -110 14 0 25 5 25 11 0 6 -25 56 -55 111 l-54 99 34 35
c45 44 61 102 45 163 -22 86 -63 111 -185 111 l-85 0 0 -266z m185 202 c34
-22 49 -75 35 -125 -14 -54 -41 -71 -112 -71 l-58 0 0 111 0 112 56 -6 c30 -3
66 -13 79 -21z"/>
<path d="M6060 434 l0 -267 78 5 c151 9 175 41 180 236 5 181 -1 218 -45 259
-34 32 -37 33 -124 33 l-89 0 0 -266z m181 190 c23 -24 24 -33 27 -166 5 -195
-12 -228 -115 -228 l-53 0 0 210 0 210 58 0 c50 0 62 -4 83 -26z"/>
<path d="M6492 438 l3 -263 23 -3 22 -3 0 265 0 266 -25 0 -25 0 2 -262z"/>
<path d="M6722 438 c3 -255 4 -263 23 -263 19 0 20 8 23 108 l3 107 44 0 44 0
58 -110 c45 -86 63 -110 79 -110 34 0 35 11 5 64 -15 28 -41 74 -57 103 l-29
52 27 28 c74 77 75 187 4 253 -25 23 -37 25 -127 28 l-99 4 2 -264z m150 212
c56 -16 81 -54 75 -114 -6 -71 -38 -96 -118 -96 l-59 0 0 110 0 110 33 0 c17
0 49 -5 69 -10z"/>
<path d="M7190 435 l0 -266 128 3 127 3 3 28 3 27 -105 0 -106 0 0 95 0 94
103 3 c94 3 102 4 102 23 0 19 -8 20 -102 23 l-103 3 0 89 0 90 105 0 105 0 0
25 0 25 -130 0 -130 0 0 -265z"/>
<path d="M8000 675 c0 -24 3 -25 55 -25 l55 0 0 -241 0 -240 23 3 22 3 3 238
2 237 55 0 c52 0 55 1 55 25 l0 25 -135 0 -135 0 0 -25z"/>
<path d="M8432 438 l3 -263 25 0 25 0 3 263 2 262 -30 0 -30 0 2 -262z"/>
<path d="M9112 438 l3 -263 23 -3 22 -3 0 200 c0 111 3 201 8 201 4 0 46 -89
93 -198 77 -179 88 -197 110 -197 l24 0 3 263 2 262 -25 0 -25 0 0 -192 c0
-106 -4 -188 -8 -182 -5 5 -46 91 -92 192 -80 174 -85 182 -112 182 l-28 0 2
-262z"/>
<path d="M10040 435 l0 -266 128 3 127 3 3 28 3 27 -105 0 -106 0 0 95 0 94
103 3 c94 3 102 4 102 23 0 19 -8 20 -102 23 l-103 3 0 89 0 90 105 0 105 0 0
25 0 25 -130 0 -130 0 0 -265z"/>
<path d="M10470 434 l0 -265 23 3 c22 3 22 5 27 198 l5 195 49 -122 c45 -113
52 -123 75 -123 24 0 30 10 76 123 l50 122 5 -195 c5 -187 6 -195 25 -195 19
0 20 8 23 263 l2 263 -26 -3 c-23 -3 -32 -17 -87 -155 -34 -84 -65 -153 -68
-153 -3 0 -19 33 -34 73 -82 210 -96 237 -121 237 l-24 0 0 -266z"/>
<path d="M11002 438 l3 -263 80 1 c104 1 147 20 175 78 11 23 20 57 20 76 0
37 -41 114 -65 124 -14 5 -12 11 10 43 44 65 27 156 -35 188 -19 10 -57 15
-110 15 l-80 0 2 -262z m171 200 c27 -20 37 -70 22 -106 -15 -33 -69 -57 -115
-50 -24 3 -25 6 -28 86 l-3 82 54 0 c29 0 61 -6 70 -12z m-11 -208 c48 -14 68
-43 68 -98 0 -60 -37 -97 -108 -107 -28 -4 -56 -4 -62 0 -6 4 -10 49 -10 111
l0 104 38 0 c20 0 54 -5 74 -10z"/>
<path d="M11432 438 c3 -255 4 -263 23 -263 19 0 20 8 23 108 l3 107 44 0 44
0 58 -110 c45 -86 63 -110 79 -110 34 0 35 11 5 64 -15 28 -41 74 -57 103
l-29 52 27 28 c75 81 77 185 4 253 -25 23 -37 25 -127 28 l-99 4 2 -264z m150
212 c56 -16 81 -54 75 -114 -6 -71 -38 -96 -118 -96 l-59 0 0 110 0 110 33 0
c17 0 49 -5 69 -10z"/>
<path d="M11957 447 c-37 -138 -67 -258 -67 -264 0 -7 6 -13 14 -13 18 0 32
19 40 55 4 17 12 47 17 68 l10 38 76 -3 77 -3 12 -50 c6 -27 15 -63 18 -78 5
-22 12 -28 29 -25 27 4 29 -7 -38 243 -29 110 -59 219 -65 243 -9 33 -15 42
-33 42 -20 0 -27 -19 -90 -253z m124 50 c15 -61 25 -115 23 -119 -6 -9 -108
-11 -116 -2 -3 3 8 59 25 124 17 66 33 117 36 115 3 -3 17 -56 32 -118z"/>
<path d="M12770 435 l0 -266 128 3 127 3 3 28 3 27 -105 0 -106 0 0 95 0 95
100 0 100 0 0 25 0 25 -100 0 -100 0 0 90 0 89 103 3 c97 3 102 4 105 26 3 22
3 22 -127 22 l-131 0 0 -265z"/>
<path d="M13432 438 l3 -263 127 -3 c119 -2 127 -1 133 18 3 11 3 24 0 30 -3
6 -51 10 -111 10 l-104 0 0 95 0 95 105 0 105 0 0 25 0 25 -105 0 -105 0 0 90
0 90 105 0 105 0 0 25 0 25 -130 0 -130 0 2 -262z"/>
<path d="M13830 693 c0 -8 97 -372 125 -470 17 -57 39 -69 55 -30 5 12 37 123
70 247 33 124 63 233 66 243 4 13 0 17 -20 17 -21 0 -27 -7 -35 -37 -61 -238
-95 -359 -101 -366 -7 -8 -36 96 -91 316 -19 79 -24 87 -45 87 -13 0 -24 -3
-24 -7z"/>
<path d="M14300 435 l0 -266 128 3 127 3 3 27 3 27 -108 3 -108 3 -3 93 -3 92
106 0 c105 0 105 0 105 25 0 24 -1 24 -102 27 l-103 3 0 85 0 85 103 3 c101 3
102 3 102 27 l0 25 -125 0 -125 0 0 -265z"/>
<path d="M14720 435 c0 -257 1 -265 20 -265 18 0 20 8 22 108 l3 107 45 3 45
2 56 -107 c47 -93 59 -108 82 -111 15 -2 27 1 27 6 0 5 -25 55 -56 112 -55
102 -56 104 -36 119 58 46 81 155 47 222 -27 52 -68 69 -167 69 l-88 0 0 -265z
m139 219 c52 -11 81 -46 81 -99 0 -86 -29 -114 -117 -115 l-63 0 0 103 c0 57
3 107 7 110 8 9 51 9 92 1z"/>
<path d="M15162 628 c17 -40 42 -98 56 -128 22 -48 27 -73 31 -190 6 -130 7
-135 29 -138 22 -3 22 -2 22 118 l0 121 60 138 c33 76 60 142 60 146 0 3 -12
5 -27 3 -24 -3 -31 -14 -65 -98 -21 -52 -42 -98 -47 -103 -4 -4 -28 39 -52 97
-40 98 -45 106 -71 106 l-27 0 31 -72z"/>
<path d="M15830 434 l0 -265 23 3 c21 3 22 7 25 121 l3 117 84 0 85 0 0 -121
c0 -119 0 -120 23 -117 l22 3 3 263 2 262 -25 0 -24 0 -3 -117 -3 -118 -82 -3
-83 -3 0 121 0 120 -25 0 -25 0 0 -266z"/>
<path d="M16280 490 c0 -230 5 -259 55 -298 55 -44 172 -21 207 40 9 17 14 85
16 246 l4 222 -26 0 -25 0 -3 -209 c-3 -195 -5 -212 -24 -238 -35 -47 -113
-44 -139 7 -12 23 -15 70 -15 235 l0 205 -25 0 -25 0 0 -210z"/>
<path d="M16722 438 l3 -263 130 0 130 0 3 28 3 27 -110 0 -111 0 0 95 0 95
105 0 105 0 0 25 0 25 -105 0 -105 0 0 90 0 90 105 0 105 0 0 25 0 25 -130 0
-130 0 2 -262z"/>
<path d="M9590 184 c0 -46 0 -46 23 -32 13 9 23 28 25 47 3 27 0 31 -22 31
-24 0 -26 -3 -26 -46z"/>
</g>
</svg>
